<svg xmlns="http://www.w3.org/2000/svg" width="81" height="61" viewBox="0 0 81 61">
    <g fill="none" fill-rule="evenodd">
        <g fill="currentColor">
            <g>
                <path d="M53.778 9.992V5.359c.334-.349.705-.676 1.089-.967 1.685-1.26 4.095-.042 4.095 2.063v4.669c0 .426-.428.711-.826.569-1.301-.476-2.637-.883-3.988-1.224-.22-.058-.37-.249-.37-.477zm.476 18.452c-1.087 0-1.954-.883-1.954-1.956 0-4.334 3.504-7.85 7.835-7.85 4.328 0 7.826 3.516 7.826 7.85 0 1.073-.867 1.956-1.955 1.956-1.08 0-1.954-.883-1.954-1.956 0-2.17-1.764-3.921-3.917-3.921-2.162 0-3.926 1.75-3.926 3.92 0 1.074-.867 1.957-1.955 1.957zM18.72 26.438c-.675-.527-.782-1.5-.256-2.178 6.555-8.204 20.66-9.856 21.265-9.928.86-.099 1.628.52 1.727 1.381.093.862-.525 1.63-1.386 1.736-.136 0-13.423 1.552-19.174 8.76-.299.365-.74.578-1.21.578-.361-.008-.696-.128-.966-.349zm-7.167 1.637c-.369 1.422-.554 2.888-.554 4.362 0 7.422 4.913 14.404 13.103 18.786l.896 6.96c.426 1.765 2.075 2.961 3.888 2.798h3.037c1.805.163 3.462-1.025 3.889-2.79l.376-2.982c4.756.776 9.612.776 14.376 0l.39 3.024c.428 1.758 2.084 2.932 3.89 2.748h3.028c1.8.184 3.463-.99 3.89-2.748l.924-7.03c4.685-2.328 8.553-6.036 11.083-10.618l4.365-1.18c1.7-.464 2.873-2.008 2.865-3.766v-9.693c0-2.148-1.741-3.892-3.889-3.892h-4.677c-2.794-3.871-6.542-6.96-10.878-8.966V1.297c0-.72-.583-1.297-1.293-1.297-2.311 0-4.566.692-6.485 1.98v-.683c0-.72-.583-1.297-1.294-1.297-5.474-.005-10.216 3.809-11.397 9.159-13.337.663-24.321 7.046-28.388 15.764-.036-.043-.078-.072-.113-.115-.3 1.074-.626 2.135-1.074 3.16l.042.107z" transform="translate(-53 -125) translate(53 125)"/>
                <path d="M6.278 22.332c-.684-.62-1.295-1.301-1.768-2.046-.637-1-.675-1.991-.052-3.012.428-.707 1.643-2.177 2.62-1.777 1.123.464.748 2.191.51 3.042-.318 1.133-.706 2.256-1.123 3.355-.057.15-.127.291-.187.438M2.079 32.6c1.827-2.077 3.77-4.138 5.16-6.54.715.432 1.46.817 2.22 1.154.32.14.64.278.966.402.541.208 1.153-.14 1.422-.614.027-.05.048-.098.068-.15.013-.032.03-.063.039-.095.193-.687-.244-1.277-.868-1.515-.216-.083-.433-.18-.65-.272-.712-.309-1.425-.672-2.112-1.098.145-.337.287-.679.42-1.022.554-1.414 1.127-2.904 1.422-4.393.322-1.633.14-3.405-1.15-4.598-1.268-1.169-3.079-1.07-4.46-.153-2.777 1.845-4.018 5.292-1.978 8.142.734 1.025 1.61 1.936 2.584 2.741-1.327 2.271-3.056 4.241-4.84 6.267-1.048 1.191.705 2.938 1.757 1.744" transform="translate(-53 -125) translate(53 125)"/>
            </g>
        </g>
    </g>
</svg>